<?xml version="1.0" standalone="no"?><svg xmlns="http://www.w3.org/2000/svg" viewBox="0 0 1440 320"><path fill="#F34E4E" fill-opacity="0.75" d="M0,160L0,288L80,288L80,128L160,128L160,288L240,288L240,32L320,32L320,192L400,192L400,256L480,256L480,192L560,192L560,288L640,288L640,256L720,256L720,288L800,288L800,288L880,288L880,192L960,192L960,256L1040,256L1040,32L1120,32L1120,32L1200,32L1200,320L1280,320L1280,256L1360,256L1360,288L1440,288L1440,0L1360,0L1360,0L1280,0L1280,0L1200,0L1200,0L1120,0L1120,0L1040,0L1040,0L960,0L960,0L880,0L880,0L800,0L800,0L720,0L720,0L640,0L640,0L560,0L560,0L480,0L480,0L400,0L400,0L320,0L320,0L240,0L240,0L160,0L160,0L80,0L80,0L0,0L0,0Z"></path></svg>